<svg width="134" height="107" viewBox="0 0 134 107" fill="none" xmlns="http://www.w3.org/2000/svg">
<path d="M19.9075 95.9772C45.9151 109.564 88.0845 109.564 114.092 95.9772C140.1 82.3906 140.1 60.3617 114.092 46.7721C88.0845 33.1825 45.927 33.1855 19.9075 46.7721C-6.11193 60.3588 -6.08814 82.3906 19.9075 95.9772Z" fill="#F5F5F5"/>
<path d="M31.9883 37.3852V83.4114L79.0969 56.2144L79.0939 14.3721L44.0673 34.5959L42.857 31.1078L31.9883 37.3852Z" fill="#9E1068"/>
<path opacity="0.7" d="M31.9883 37.3852V83.4114L79.0969 56.2144L79.0939 14.3721L44.0673 34.5959L42.857 31.1078L31.9883 37.3852Z" fill="black"/>
<path d="M31.9883 83.4114L34.4029 41.5691L81.5115 14.3721L79.0969 56.2144L31.9883 83.4114Z" fill="#E0E0E0"/>
<path d="M31.9883 83.4128L35.6102 42.2694L82.7188 15.0693L79.0969 56.2158L31.9883 83.4128Z" fill="#9E1068"/>
<path opacity="0.7" d="M31.9883 83.4128L35.6102 42.2694L82.7188 15.0693L79.0969 56.2158L31.9883 83.4128Z" fill="black"/>
<path d="M39.2334 41.5717V87.6009L86.342 60.4009V18.5586L51.3124 38.7824L50.1051 35.2943L39.2334 41.5717Z" fill="#9E1068"/>
<path opacity="0.5" d="M39.2334 41.5717V87.6009L86.342 60.4009V18.5586L51.3124 38.7824L50.1051 35.2943L39.2334 41.5717Z" fill="black"/>
<path d="M39.2334 87.6009L41.648 45.7556L88.7566 18.5586L86.342 60.4009L39.2334 87.6009Z" fill="#E0E0E0"/>
<path d="M39.2334 87.6023L42.8553 46.4559L89.9639 19.2559L86.342 60.4023L39.2334 87.6023Z" fill="#9E1068"/>
<path opacity="0.5" d="M39.2334 87.6023L42.8553 46.4559L89.9639 19.2559L86.342 60.4023L39.2334 87.6023Z" fill="black"/>
<path d="M79.0825 102.245C70.6255 97.3621 62.781 92.0541 59.2007 85.8273L70.0843 79.5439L79.0825 102.245Z" fill="#E0E0E0"/>
<path d="M47.6875 46.4545V92.4807L94.7961 65.2837V23.4414L59.7665 43.6652L58.5592 40.1771L47.6875 46.4545Z" fill="#9E1068"/>
<path opacity="0.2" d="M47.6875 46.4545V92.4807L94.7961 65.2837V23.4414L59.7665 43.6652L58.5592 40.1771L47.6875 46.4545Z" fill="black"/>
<path d="M61.2593 60.0635C61.1404 60.0635 61.1226 59.9267 61.1226 59.8464V20.5941C61.1321 20.4419 61.1768 20.2939 61.2532 20.1618C61.3295 20.0297 61.4355 19.9171 61.5627 19.8329L95.5634 0.206759C95.61 0.177717 95.6633 0.161316 95.7181 0.15918C95.837 0.15918 95.8548 0.295969 95.8548 0.376257V39.6285C95.8455 39.7812 95.8009 39.9297 95.7246 40.0623C95.6482 40.1949 95.5422 40.308 95.4147 40.3927L61.414 60.0188C61.367 60.0465 61.3138 60.0618 61.2593 60.0635Z" fill="white"/>
<path d="M95.7004 0.294439C95.7028 0.316179 95.7028 0.338119 95.7004 0.359859V39.6121C95.6906 39.7387 95.6527 39.8615 95.5894 39.9716C95.5262 40.0817 95.4391 40.1763 95.3347 40.2485L61.3339 59.8746L61.2744 59.9013C61.2705 59.8797 61.2705 59.8576 61.2744 59.8359V20.5837C61.2846 20.4576 61.3227 20.3354 61.386 20.2258C61.4493 20.1163 61.5361 20.0222 61.6402 19.9503L95.6409 0.324175C95.6597 0.311057 95.681 0.301948 95.7034 0.297413M95.7212 4.75054e-05C95.6402 0.0024583 95.5613 0.0260397 95.4923 0.0684426L61.4915 19.6946C61.342 19.7927 61.2176 19.9246 61.1283 20.0795C61.039 20.2344 60.9872 20.4081 60.9771 20.5867V59.8389C60.9771 60.0709 61.093 60.2047 61.2744 60.2047C61.3554 60.2025 61.4345 60.1789 61.5034 60.1363L95.5042 40.5101C95.6543 40.4127 95.7792 40.281 95.8686 40.1259C95.958 39.9709 96.0094 39.7968 96.0186 39.618V0.365808C96.0186 0.133863 95.9026 -0.00292615 95.7212 4.75054e-05Z" fill="#9E1068"/>
<path opacity="0.7" d="M95.7004 0.294439C95.7028 0.316179 95.7028 0.338119 95.7004 0.359859V39.6121C95.6906 39.7387 95.6527 39.8615 95.5894 39.9716C95.5262 40.0817 95.4391 40.1763 95.3347 40.2485L61.3339 59.8746L61.2744 59.9013C61.2705 59.8797 61.2705 59.8576 61.2744 59.8359V20.5837C61.2846 20.4576 61.3227 20.3354 61.386 20.2258C61.4493 20.1163 61.5361 20.0222 61.6402 19.9503L95.6409 0.324175C95.6597 0.311057 95.681 0.301948 95.7034 0.297413M95.7212 4.75054e-05C95.6402 0.0024583 95.5613 0.0260397 95.4923 0.0684426L61.4915 19.6946C61.342 19.7927 61.2176 19.9246 61.1283 20.0795C61.039 20.2344 60.9872 20.4081 60.9771 20.5867V59.8389C60.9771 60.0709 61.093 60.2047 61.2744 60.2047C61.3554 60.2025 61.4345 60.1789 61.5034 60.1363L95.5042 40.5101C95.6543 40.4127 95.7792 40.281 95.8686 40.1259C95.958 39.9709 96.0094 39.7968 96.0186 39.618V0.365808C96.0186 0.133863 95.9026 -0.00292615 95.7212 4.75054e-05Z" fill="white"/>
<path d="M64.5991 22.0816L76.6781 15.1084V29.0548L64.5991 36.0281V22.0816Z" fill="#9E1068"/>
<path opacity="0.8" d="M64.5991 22.0816L76.6781 15.1084V29.0548L64.5991 36.0281V22.0816Z" fill="white"/>
<path d="M74.8667 18.585V22.7778L74.486 22.9889V21.7073C74.486 20.9996 73.9121 20.7587 73.1984 21.1691L68.0808 24.1279C67.3701 24.5382 66.7932 25.4452 66.7932 26.1529V27.4346L66.4155 27.6606V23.4766L74.8667 18.585Z" fill="white"/>
<path d="M72.541 29.2621C71.9225 29.6189 71.42 29.2442 71.42 28.4205V21.709L69.8647 22.5535V29.3186C69.8647 30.1393 69.3622 31.1028 68.7437 31.4507L67.6196 32.0989V32.545L73.6591 29.0569V28.6138L72.541 29.2621Z" fill="white"/>
<path d="M79.083 14.423C79.083 14.8096 79.4309 14.9196 79.8562 14.6757L91.608 7.88094C91.8166 7.76275 91.9949 7.59789 92.129 7.39926C92.2631 7.20064 92.3495 6.97365 92.3812 6.73608C92.3812 6.35248 92.0333 6.23948 91.608 6.4863L79.8651 13.2662C79.6531 13.3842 79.4719 13.5504 79.336 13.7513C79.2002 13.9522 79.1135 14.1823 79.083 14.423Z" fill="#E1E8FF"/>
<path d="M79.083 18.5849C79.083 18.9714 79.4309 19.0844 79.8562 18.8376L91.5991 12.0577C91.8076 11.9395 91.9859 11.7746 92.1201 11.576C92.2542 11.3774 92.3405 11.1504 92.3723 10.9128C92.3723 10.5292 92.0244 10.4162 91.5991 10.6631L79.8562 17.443C79.648 17.5609 79.4699 17.7253 79.3358 17.9234C79.2017 18.1214 79.1152 18.3478 79.083 18.5849Z" fill="#E1E8FF"/>
<path d="M79.083 22.7791C79.083 23.1656 79.4309 23.2786 79.8562 23.0318L91.5991 16.2519C91.8073 16.134 91.9853 15.9696 92.1195 15.7715C92.2536 15.5734 92.3401 15.3471 92.3723 15.11C92.3723 14.7234 92.0244 14.6104 91.5991 14.8573L79.8562 21.6372C79.648 21.7551 79.4699 21.9195 79.3358 22.1176C79.2017 22.3156 79.1152 22.542 79.083 22.7791Z" fill="#E1E8FF"/>
<path d="M79.083 26.9617C79.083 27.3483 79.4309 27.4613 79.8562 27.2144L91.5991 20.4345C91.8073 20.3166 91.9853 20.1522 92.1195 19.9541C92.2536 19.7561 92.3401 19.5297 92.3723 19.2926C92.3723 18.9061 92.0244 18.7931 91.5991 19.0399L79.8562 25.8198C79.648 25.9377 79.4699 26.1021 79.3358 26.3002C79.2017 26.4983 79.1152 26.7246 79.083 26.9617Z" fill="#E1E8FF"/>
<path d="M64.5991 39.516C64.5991 39.9026 64.9441 40.0156 65.3723 39.7688L91.6088 24.6031C91.8173 24.4856 91.9956 24.3213 92.1297 24.1231C92.2639 23.925 92.3502 23.6984 92.382 23.4612C92.382 23.0747 92.0341 22.9646 91.6088 23.2085L65.3723 38.3741C65.1637 38.4915 64.9853 38.6557 64.8511 38.8539C64.7169 39.0521 64.6306 39.2787 64.5991 39.516Z" fill="#E1E8FF"/>
<path d="M64.5991 43.6998C64.5991 44.0864 64.9441 44.1994 65.3723 43.9526L91.6088 28.8048C91.8173 28.6866 91.9957 28.5217 92.1298 28.3231C92.2639 28.1245 92.3502 27.8975 92.382 27.6599C92.382 27.2763 92.0341 27.1633 91.6088 27.4101L65.3723 42.5579C65.1637 42.6753 64.9853 42.8395 64.8511 43.0377C64.7169 43.2359 64.6306 43.4626 64.5991 43.6998Z" fill="#E1E8FF"/>
<path d="M64.5991 47.8883C64.5991 48.2719 64.9441 48.3849 65.3723 48.1381L91.6088 32.9903C91.8173 32.8721 91.9957 32.7073 92.1298 32.5086C92.2639 32.31 92.3502 32.083 92.382 31.8455C92.382 31.4619 92.0341 31.3489 91.6088 31.5957L65.3723 46.7435C65.1633 46.8611 64.9847 47.0258 64.8504 47.2246C64.7162 47.4233 64.6302 47.6505 64.5991 47.8883Z" fill="#E1E8FF"/>
<path d="M47.6875 92.4799L56.1416 55.5203L103.25 28.3203L94.7961 65.2828L47.6875 92.4799Z" fill="#9E1068"/>
<path d="M59.2139 58.416V85.8301L70.0855 79.5527V52.1416L59.2139 58.416Z" fill="#9E1068"/>
<path opacity="0.2" d="M59.2139 58.416V85.8301L70.0855 79.5527V52.1416L59.2139 58.416Z" fill="black"/>
<path d="M79.1045 102.068C78.1797 101.378 69.2647 94.5653 64.7329 84.8206C59.9096 74.4604 59.9155 62.3755 59.9155 57.8287V57.686L92.2332 39.0293C92.2332 43.6176 92.2332 55.7204 97.0773 66.1163C101.505 75.632 110.078 82.3584 111.437 83.3873L79.1045 102.068Z" fill="white"/>
<path d="M92.0851 39.2968C92.0851 44.0784 92.1772 55.9492 96.944 66.1905C101.223 75.3791 109.359 81.9865 111.17 83.3812L79.114 101.889C77.8621 100.947 69.2831 94.2469 64.8702 84.7699C60.0528 74.4394 60.0528 62.3783 60.0528 57.8375V57.781L92.0732 39.2938M92.3705 38.7793L59.7555 57.6115C59.7555 61.8906 59.6663 74.3234 64.5877 84.8948C69.4318 95.2699 79.0842 102.246 79.0842 102.246L111.708 83.4109C111.708 83.4109 102.044 76.4347 97.2146 66.0596C92.2902 55.4883 92.3824 43.0555 92.3824 38.7764L92.3705 38.7793Z" fill="#9E1068"/>
<path opacity="0.7" d="M92.0851 39.2968C92.0851 44.0784 92.1772 55.9492 96.944 66.1905C101.223 75.3791 109.359 81.9865 111.17 83.3812L79.114 101.889C77.8621 100.947 69.2831 94.2469 64.8702 84.7699C60.0528 74.4394 60.0528 62.3783 60.0528 57.8375V57.781L92.0732 39.2938M92.3705 38.7793L59.7555 57.6115C59.7555 61.8906 59.6663 74.3234 64.5877 84.8948C69.4318 95.2699 79.0842 102.246 79.0842 102.246L111.708 83.4109C111.708 83.4109 102.044 76.4347 97.2146 66.0596C92.2902 55.4883 92.3824 43.0555 92.3824 38.7764L92.3705 38.7793Z" fill="white"/>
<path d="M88.6924 45.097L78.3797 51.0443C78.1733 51.1579 77.9974 51.3197 77.8669 51.516C77.7364 51.7122 77.6553 51.937 77.6304 52.1713C77.6452 52.549 78.0051 52.656 78.4303 52.4092L88.7459 46.4619C88.9499 46.3494 89.124 46.1897 89.2538 45.9963C89.3837 45.8028 89.4654 45.5812 89.4923 45.3498C89.4744 44.9573 89.1206 44.8502 88.6924 45.097Z" fill="#E1E8FF"/>
<path d="M88.9112 49.1556L78.5985 55.1029C78.3946 55.2126 78.2216 55.3721 78.0958 55.5665C77.97 55.7609 77.8954 55.984 77.8789 56.215C77.9116 56.5808 78.2863 56.6789 78.7115 56.4321L89.0271 50.4848C89.2301 50.3756 89.4019 50.2164 89.5262 50.0223C89.6506 49.8282 89.7234 49.6057 89.7378 49.3756C89.7081 49.0069 89.3394 48.9177 88.9112 49.1556Z" fill="#E1E8FF"/>
<path d="M89.3248 53.0997L79.0092 59.047C78.5839 59.2938 78.2747 59.7845 78.3252 60.1383C78.3758 60.4922 78.7653 60.5844 79.1935 60.3376L89.5091 54.3903C89.9344 54.1435 90.2377 53.6558 90.1842 53.3019C90.1306 52.9481 89.75 52.8529 89.3248 53.0997Z" fill="#E1E8FF"/>
<path d="M89.9428 56.9284L79.6272 62.8757C79.202 63.1225 78.9076 63.6042 78.9789 63.9492C79.0503 64.2941 79.4547 64.3714 79.871 64.1246L90.1837 58.1773C90.6119 57.9305 90.8973 57.4517 90.826 57.1068C90.7546 56.7619 90.3829 56.6816 89.9428 56.9284Z" fill="#E1E8FF"/>
<path d="M90.7825 60.6266L80.4669 66.5739C80.0417 66.8207 79.7652 67.2905 79.8722 67.6206C79.9793 67.9507 80.3867 68.025 80.8119 67.7782L91.1275 61.8309C91.5557 61.5841 91.8233 61.1172 91.7222 60.7842C91.6211 60.4511 91.2078 60.3797 90.7825 60.6266Z" fill="#E1E8FF"/>
<path d="M91.8698 64.1914L66.7305 78.7058C66.3053 78.9526 66.0465 79.4106 66.1625 79.7288C66.2785 80.047 66.7216 80.1064 67.1468 79.8596L92.2861 65.3452C92.7143 65.0984 92.9611 64.6434 92.8451 64.3223C92.7291 64.0011 92.2801 63.9446 91.8698 64.1914Z" fill="#E1E8FF"/>
<path d="M93.1931 67.5983L68.0568 82.1127C67.6286 82.3595 67.3937 82.8056 67.5364 83.1089C67.6792 83.4122 68.1312 83.4598 68.5653 83.213L93.7046 68.6986C94.1328 68.4518 94.3618 68.0057 94.219 67.7024C94.0763 67.3991 93.6213 67.3545 93.1931 67.5983Z" fill="#E1E8FF"/>
<path d="M94.8435 70.8411L69.7042 85.3555C69.276 85.6023 69.0648 86.0364 69.2343 86.3249C69.4038 86.6133 69.8885 86.6431 70.3167 86.3962L95.4382 71.8818C95.8634 71.638 96.0686 71.2068 95.8991 70.9184C95.7296 70.6299 95.2598 70.5942 94.8435 70.8411Z" fill="#E1E8FF"/>
<path d="M96.7675 73.9105L71.6312 88.4219C71.203 88.6687 71.0126 89.094 71.2059 89.3646C71.3992 89.6352 71.9077 89.6619 72.3359 89.4121L97.4722 74.8977C97.9004 74.6509 98.0848 74.2316 97.8915 73.9581C97.6982 73.6845 97.1957 73.6637 96.7675 73.9105Z" fill="#E1E8FF"/>
<path d="M98.9616 76.8273L73.8224 91.3388C73.3971 91.5856 73.2276 91.9989 73.4417 92.2576C73.6558 92.5163 74.1822 92.5282 74.6104 92.2814L99.7497 77.761C100.175 77.5142 100.344 77.1068 100.124 76.8481C99.9043 76.5894 99.3899 76.5716 98.9616 76.8273Z" fill="#E1E8FF"/>
<path d="M101.386 79.6035L76.2554 94.1149C75.8272 94.3617 75.6606 94.7661 75.9104 95.007C76.1602 95.2479 76.6895 95.2538 77.1148 95.007L102.254 80.4926C102.682 80.2458 102.831 79.8473 102.593 79.6005C102.355 79.3537 101.82 79.3596 101.386 79.6035Z" fill="#E1E8FF"/>
<path d="M104.062 82.2611L78.9227 96.7726C78.4974 97.0194 78.3577 97.4149 78.6253 97.6498C78.8929 97.8847 79.4401 97.8758 79.8683 97.629L104.987 83.1146C105.412 82.8678 105.546 82.4812 105.284 82.2433C105.022 82.0054 104.478 82.0143 104.062 82.2611Z" fill="#E1E8FF"/>
<path d="M74.6407 53.2119L62.7817 60.0513C62.9126 64.3483 63.4032 70.5453 65.1993 76.7871L77.0612 69.9476C75.2622 63.7059 74.7715 57.5059 74.6407 53.2119Z" fill="#9E1068"/>
<path opacity="0.8" d="M74.6407 53.2119L62.7817 60.0513C62.9126 64.3483 63.4032 70.5453 65.1993 76.7871L77.0612 69.9476C75.2622 63.7059 74.7715 57.5059 74.6407 53.2119Z" fill="white"/>
<path d="M67.6169 59.1043C67.6329 58.8269 67.5897 58.5493 67.4903 58.2899C67.3908 58.0305 67.2373 57.7952 67.04 57.5996L62.7817 60.0558C62.8174 61.1918 62.8769 62.4615 62.981 63.8294C63.5349 63.8931 64.0952 63.7896 64.5897 63.532C66.2639 62.7648 67.6169 60.7755 67.6169 59.1043Z" fill="#9E1068"/>
<path opacity="0.6" d="M67.6169 59.1043C67.6329 58.8269 67.5897 58.5493 67.4903 58.2899C67.3908 58.0305 67.2373 57.7952 67.04 57.5996L62.7817 60.0558C62.8174 61.1918 62.8769 62.4615 62.981 63.8294C63.5349 63.8931 64.0952 63.7896 64.5897 63.532C66.2639 62.7648 67.6169 60.7755 67.6169 59.1043Z" fill="white"/>
<path d="M76.0533 65.8421C75.2623 64.8459 73.6535 61.7682 72.9666 60.4271C72.9396 60.3741 72.8973 60.3304 72.8453 60.3016C72.7932 60.2729 72.7337 60.2605 72.6744 60.2659C72.6152 60.2713 72.5589 60.2944 72.513 60.3322C72.467 60.3699 72.4334 60.4206 72.4165 60.4776C71.6733 63.0179 71.242 65.6391 71.1319 68.2835C70.1415 67.4973 69.2901 66.5504 68.6132 65.4823C68.5843 65.4409 68.5442 65.4086 68.4977 65.3893C68.4511 65.3699 68.3999 65.3643 68.3502 65.373C68.3005 65.3818 68.2544 65.4046 68.2172 65.4387C68.18 65.4728 68.1534 65.5168 68.1404 65.5655C66.8439 70.5583 67.4951 75.4708 67.4951 75.4708L77.0613 69.9457C76.6629 68.566 76.3328 67.1921 76.0533 65.8421Z" fill="#9E1068"/>
<path opacity="0.6" d="M76.0533 65.8421C75.2623 64.8459 73.6535 61.7682 72.9666 60.4271C72.9396 60.3741 72.8973 60.3304 72.8453 60.3016C72.7932 60.2729 72.7337 60.2605 72.6744 60.2659C72.6152 60.2713 72.5589 60.2944 72.513 60.3322C72.467 60.3699 72.4334 60.4206 72.4165 60.4776C71.6733 63.0179 71.242 65.6391 71.1319 68.2835C70.1415 67.4973 69.2901 66.5504 68.6132 65.4823C68.5843 65.4409 68.5442 65.4086 68.4977 65.3893C68.4511 65.3699 68.3999 65.3643 68.3502 65.373C68.3005 65.3818 68.2544 65.4046 68.2172 65.4387C68.18 65.4728 68.1534 65.5168 68.1404 65.5655C66.8439 70.5583 67.4951 75.4708 67.4951 75.4708L77.0613 69.9457C76.6629 68.566 76.3328 67.1921 76.0533 65.8421Z" fill="white"/>
</svg>
