<svg width="22" height="22" viewBox="0 0 22 22" fill="none" xmlns="http://www.w3.org/2000/svg">
<path d="M13.6956 20.0132H13.5788C9.58875 20.0132 7.66561 18.4406 7.33311 14.9178C7.29716 14.5494 7.56676 14.2169 7.9442 14.1809C8.30367 14.145 8.64516 14.4235 8.6811 14.792C8.94172 17.6138 10.2717 18.6652 13.5878 18.6652H13.7046C17.3622 18.6652 18.6563 17.3712 18.6563 13.7136V7.85432C18.6563 4.19676 17.3622 2.90268 13.7046 2.90268H13.5878C10.2538 2.90268 8.92374 3.97209 8.6811 6.84782C8.63617 7.21627 8.32164 7.49485 7.9442 7.45891C7.56676 7.43195 7.29716 7.09944 7.32412 6.73099C7.62967 3.15431 9.56179 1.55469 13.5788 1.55469H13.6956C18.1081 1.55469 19.9953 3.44188 19.9953 7.85432V13.7136C19.9953 18.126 18.1081 20.0132 13.6956 20.0132Z" fill="#292D32"/>
<path d="M13.4809 11.4574H3.25408C2.88562 11.4574 2.58008 11.1518 2.58008 10.7834C2.58008 10.4149 2.88562 10.1094 3.25408 10.1094H13.4809C13.8493 10.1094 14.1549 10.4149 14.1549 10.7834C14.1549 11.1518 13.8493 11.4574 13.4809 11.4574Z" fill="#292D32"/>
<path d="M5.25649 14.4664C5.08575 14.4664 4.915 14.4035 4.7802 14.2687L1.76968 11.2582C1.50907 10.9976 1.50907 10.5662 1.76968 10.3056L4.7802 7.29507C5.04081 7.03446 5.47217 7.03446 5.73278 7.29507C5.9934 7.55568 5.9934 7.98704 5.73278 8.24765L3.19855 10.7819L5.73278 13.3161C5.9934 13.5767 5.9934 14.0081 5.73278 14.2687C5.60697 14.4035 5.42724 14.4664 5.25649 14.4664Z" fill="#292D32"/>
</svg>
