<svg width="25" height="24" viewBox="0 0 25 24" fill="none" xmlns="http://www.w3.org/2000/svg">
<path d="M12.1997 15C13.8566 15 15.1997 13.6569 15.1997 12C15.1997 10.3431 13.8566 9 12.1997 9C10.5429 9 9.19971 10.3431 9.19971 12C9.19971 13.6569 10.5429 15 12.1997 15Z" stroke="#292D32" stroke-width="1.5" stroke-miterlimit="10" stroke-linecap="round" stroke-linejoin="round"/>
<path d="M2.19971 12.8799V11.1199C2.19971 10.0799 3.04971 9.21994 4.09971 9.21994C5.90971 9.21994 6.64971 7.93994 5.73971 6.36994C5.21971 5.46994 5.52971 4.29994 6.43971 3.77994L8.16971 2.78994C8.95971 2.31994 9.97971 2.59994 10.4497 3.38994L10.5597 3.57994C11.4597 5.14994 12.9397 5.14994 13.8497 3.57994L13.9597 3.38994C14.4297 2.59994 15.4497 2.31994 16.2397 2.78994L17.9697 3.77994C18.8797 4.29994 19.1897 5.46994 18.6697 6.36994C17.7597 7.93994 18.4997 9.21994 20.3097 9.21994C21.3497 9.21994 22.2097 10.0699 22.2097 11.1199V12.8799C22.2097 13.9199 21.3597 14.7799 20.3097 14.7799C18.4997 14.7799 17.7597 16.0599 18.6697 17.6299C19.1897 18.5399 18.8797 19.6999 17.9697 20.2199L16.2397 21.2099C15.4497 21.6799 14.4297 21.3999 13.9597 20.6099L13.8497 20.4199C12.9497 18.8499 11.4697 18.8499 10.5597 20.4199L10.4497 20.6099C9.97971 21.3999 8.95971 21.6799 8.16971 21.2099L6.43971 20.2199C5.52971 19.6999 5.21971 18.5299 5.73971 17.6299C6.64971 16.0599 5.90971 14.7799 4.09971 14.7799C3.04971 14.7799 2.19971 13.9199 2.19971 12.8799Z" stroke="#292D32" stroke-width="1.5" stroke-miterlimit="10" stroke-linecap="round" stroke-linejoin="round"/>
</svg>
