<svg width="148" height="30" viewBox="0 0 148 30" fill="none" xmlns="http://www.w3.org/2000/svg">
<path d="M4.87167 24.0925C3.98778 24.0925 3.28889 23.8356 2.775 23.3217C2.26111 22.8078 2.00417 22.1089 2.00417 21.225V5.28416C2.23028 5.24305 2.59 5.19167 3.08333 5.13C3.57667 5.04778 4.04944 5.00666 4.50167 5.00666C4.97444 5.00666 5.38556 5.04778 5.735 5.13C6.105 5.19167 6.41333 5.315 6.66 5.5C6.90667 5.685 7.09167 5.94194 7.215 6.27083C7.33833 6.59972 7.4 7.03139 7.4 7.56583V19.745H14.4608C14.6047 19.9711 14.7383 20.2794 14.8617 20.67C14.985 21.04 15.0467 21.4306 15.0467 21.8417C15.0467 22.6639 14.8719 23.2497 14.5225 23.5992C14.1731 23.9281 13.7106 24.0925 13.135 24.0925H4.87167ZM17.2881 4.8525C17.2881 4.07139 17.5451 3.41361 18.0589 2.87916C18.5934 2.34472 19.2923 2.0775 20.1556 2.0775C21.0189 2.0775 21.7076 2.34472 22.2214 2.87916C22.7559 3.41361 23.0231 4.07139 23.0231 4.8525C23.0231 5.63361 22.7559 6.29139 22.2214 6.82583C21.7076 7.36028 21.0189 7.6275 20.1556 7.6275C19.2923 7.6275 18.5934 7.36028 18.0589 6.82583C17.5451 6.29139 17.2881 5.63361 17.2881 4.8525ZM22.7764 23.9692C22.5503 24.0103 22.2112 24.0617 21.7589 24.1233C21.3273 24.2056 20.8853 24.2467 20.4331 24.2467C19.9809 24.2467 19.5698 24.2158 19.1998 24.1542C18.8503 24.0925 18.5523 23.9692 18.3056 23.7842C18.0589 23.5992 17.8637 23.3525 17.7198 23.0442C17.5964 22.7153 17.5348 22.2939 17.5348 21.78V9.23083C17.7609 9.18972 18.0898 9.13833 18.5214 9.07667C18.9737 8.99444 19.4259 8.95333 19.8781 8.95333C20.3303 8.95333 20.7312 8.98417 21.0806 9.04583C21.4506 9.1075 21.7589 9.23083 22.0056 9.41583C22.2523 9.60083 22.4373 9.85778 22.5606 10.1867C22.7045 10.495 22.7764 10.9061 22.7764 11.42V23.9692ZM35.6101 14.5033C35.6101 13.8661 35.4251 13.4036 35.0551 13.1158C34.7056 12.8075 34.2226 12.6533 33.6059 12.6533C33.1948 12.6533 32.7837 12.7047 32.3726 12.8075C31.982 12.9103 31.6429 13.0644 31.3551 13.27V23.9692C31.1495 24.0308 30.8206 24.0925 30.3684 24.1542C29.9368 24.2158 29.4845 24.2467 29.0118 24.2467C28.5595 24.2467 28.1484 24.2158 27.7784 24.1542C27.429 24.0925 27.1309 23.9692 26.8843 23.7842C26.6376 23.5992 26.4423 23.3525 26.2984 23.0442C26.1751 22.7153 26.1134 22.2939 26.1134 21.78V12.53C26.1134 11.975 26.2265 11.5228 26.4526 11.1733C26.6993 10.8239 27.0281 10.5053 27.4393 10.2175C28.1381 9.72417 29.0118 9.32333 30.0601 9.015C31.129 8.70667 32.3109 8.5525 33.6059 8.5525C35.9287 8.5525 37.717 9.06639 38.9709 10.0942C40.2248 11.1014 40.8518 12.5094 40.8518 14.3183V23.9692C40.6462 24.0308 40.3173 24.0925 39.8651 24.1542C39.4334 24.2158 38.9812 24.2467 38.5084 24.2467C38.0562 24.2467 37.6451 24.2158 37.2751 24.1542C36.9256 24.0925 36.6276 23.9692 36.3809 23.7842C36.1343 23.5992 35.939 23.3525 35.7951 23.0442C35.6718 22.7153 35.6101 22.2939 35.6101 21.78V14.5033ZM58.7353 21.2867C58.6326 22.2528 58.3448 22.9928 57.872 23.5067C57.4198 24.0206 56.7517 24.2775 55.8678 24.2775C55.2101 24.2775 54.6242 24.1233 54.1103 23.815C53.5964 23.4861 53.0414 22.9414 52.4453 22.1808L49.3928 18.3575V23.9692C49.1667 24.0103 48.8276 24.0617 48.3753 24.1233C47.9437 24.2056 47.5017 24.2467 47.0495 24.2467C46.5973 24.2467 46.1862 24.2158 45.8162 24.1542C45.4667 24.0925 45.1687 23.9692 44.922 23.7842C44.6753 23.5992 44.4801 23.3525 44.3362 23.0442C44.2128 22.7153 44.1512 22.2939 44.1512 21.78V3.9275C44.3773 3.86583 44.7062 3.80417 45.1378 3.7425C45.5901 3.66028 46.0423 3.61917 46.4945 3.61917C46.9467 3.61917 47.3476 3.65 47.697 3.71166C48.067 3.77333 48.3753 3.89667 48.622 4.08167C48.8687 4.26667 49.0537 4.52361 49.177 4.8525C49.3209 5.16083 49.3928 5.57194 49.3928 6.08583V14.2258L54.6962 8.79917C55.7651 8.79917 56.6181 9.03555 57.2553 9.50833C57.9131 9.98111 58.242 10.5772 58.242 11.2967C58.242 11.605 58.1906 11.8928 58.0878 12.16C57.9851 12.4067 57.8206 12.6636 57.5945 12.9308C57.3889 13.1981 57.1114 13.4858 56.762 13.7942C56.4331 14.0819 56.0426 14.4211 55.5903 14.8117L53.802 16.3533L58.7353 21.2867Z" fill="#2D68F8"/>
<path d="M66.8965 16.5692C65.9921 16.2608 65.1699 15.9525 64.4299 15.6442C63.6899 15.3153 63.0526 14.9247 62.5182 14.4725C61.9838 14.0203 61.5624 13.4858 61.254 12.8692C60.9663 12.2319 60.8224 11.4611 60.8224 10.5567C60.8224 8.80944 61.4904 7.41167 62.8265 6.36333C64.1832 5.315 66.0743 4.79083 68.4999 4.79083C69.3838 4.79083 70.206 4.8525 70.9665 4.97583C71.7271 5.09917 72.3746 5.29444 72.909 5.56166C73.464 5.80833 73.8957 6.13722 74.204 6.54833C74.5124 6.93889 74.6665 7.40139 74.6665 7.93583C74.6665 8.47028 74.5432 8.93278 74.2965 9.32333C74.0499 9.69333 73.7518 10.0119 73.4024 10.2792C72.9501 9.99139 72.3438 9.74472 71.5832 9.53917C70.8226 9.31305 69.9901 9.2 69.0857 9.2C68.1607 9.2 67.4824 9.33361 67.0507 9.60083C66.619 9.8475 66.4032 10.1661 66.4032 10.5567C66.4032 10.865 66.5368 11.1219 66.804 11.3275C67.0713 11.5125 67.4721 11.6872 68.0065 11.8517L69.6407 12.3758C71.5729 12.9925 73.0529 13.7839 74.0807 14.75C75.129 15.6956 75.6532 16.9906 75.6532 18.635C75.6532 20.3822 74.9646 21.8006 73.5874 22.89C72.2101 23.9589 70.1854 24.4933 67.5132 24.4933C66.5676 24.4933 65.6838 24.4111 64.8615 24.2467C64.0599 24.1028 63.3507 23.8869 62.734 23.5992C62.1379 23.2908 61.6651 22.9208 61.3157 22.4892C60.9868 22.0369 60.8224 21.5231 60.8224 20.9475C60.8224 20.3514 60.9971 19.8478 61.3465 19.4367C61.696 19.005 62.0763 18.6761 62.4874 18.45C63.0629 18.9022 63.7618 19.2928 64.584 19.6217C65.4268 19.9506 66.3415 20.115 67.3282 20.115C68.3354 20.115 69.0446 19.9608 69.4557 19.6525C69.8668 19.3442 70.0724 18.9844 70.0724 18.5733C70.0724 18.1622 69.9079 17.8539 69.579 17.6483C69.2501 17.4222 68.7876 17.2064 68.1915 17.0008L66.8965 16.5692ZM78.0515 4.8525C78.0515 4.07139 78.3084 3.41361 78.8223 2.87916C79.3567 2.34472 80.0556 2.0775 80.919 2.0775C81.7823 2.0775 82.4709 2.34472 82.9848 2.87916C83.5192 3.41361 83.7865 4.07139 83.7865 4.8525C83.7865 5.63361 83.5192 6.29139 82.9848 6.82583C82.4709 7.36028 81.7823 7.6275 80.919 7.6275C80.0556 7.6275 79.3567 7.36028 78.8223 6.82583C78.3084 6.29139 78.0515 5.63361 78.0515 4.8525ZM83.5398 23.9692C83.3137 24.0103 82.9745 24.0617 82.5223 24.1233C82.0906 24.2056 81.6487 24.2467 81.1965 24.2467C80.7442 24.2467 80.3331 24.2158 79.9631 24.1542C79.6137 24.0925 79.3156 23.9692 79.069 23.7842C78.8223 23.5992 78.627 23.3525 78.4831 23.0442C78.3598 22.7153 78.2981 22.2939 78.2981 21.78V9.23083C78.5242 9.18972 78.8531 9.13833 79.2848 9.07667C79.737 8.99444 80.1892 8.95333 80.6415 8.95333C81.0937 8.95333 81.4945 8.98417 81.844 9.04583C82.214 9.1075 82.5223 9.23083 82.769 9.41583C83.0156 9.60083 83.2006 9.85778 83.324 10.1867C83.4678 10.495 83.5398 10.9061 83.5398 11.42V23.9692ZM94.1843 8.5525C95.3559 8.5525 96.4145 8.70667 97.3601 9.015C98.3262 9.30278 99.1382 9.68305 99.7959 10.1558C100.207 10.4436 100.526 10.7622 100.752 11.1117C100.998 11.4611 101.122 11.9133 101.122 12.4683V23.26C101.122 24.3494 100.916 25.2847 100.505 26.0658C100.094 26.8675 99.5287 27.5253 98.8093 28.0392C98.1104 28.5736 97.2779 28.9642 96.3118 29.2108C95.3662 29.4575 94.3487 29.5808 93.2593 29.5808C91.3887 29.5808 89.919 29.3239 88.8501 28.81C87.7812 28.3167 87.2468 27.5047 87.2468 26.3742C87.2468 25.9014 87.3393 25.48 87.5243 25.11C87.7298 24.7606 87.9559 24.4933 88.2026 24.3083C88.7987 24.6372 89.4668 24.9147 90.2068 25.1408C90.9673 25.3669 91.7484 25.48 92.5501 25.48C93.6601 25.48 94.544 25.295 95.2018 24.925C95.8595 24.555 96.1884 23.9589 96.1884 23.1367V22.6433C95.3457 23.0133 94.3179 23.1983 93.1051 23.1983C92.1801 23.1983 91.2962 23.0647 90.4534 22.7975C89.6312 22.5097 88.9015 22.0781 88.2643 21.5025C87.6476 20.9064 87.144 20.1458 86.7534 19.2208C86.3834 18.2958 86.1984 17.1961 86.1984 15.9217C86.1984 14.6678 86.3937 13.5783 86.7843 12.6533C87.1954 11.7283 87.7504 10.9678 88.4493 10.3717C89.1687 9.755 90.0115 9.30278 90.9776 9.015C91.9643 8.70667 93.0332 8.5525 94.1843 8.5525ZM96.0959 13.0233C95.952 12.9411 95.7362 12.8589 95.4484 12.7767C95.1812 12.6944 94.842 12.6533 94.4309 12.6533C93.4237 12.6533 92.6632 12.9411 92.1493 13.5167C91.6559 14.0717 91.4093 14.8733 91.4093 15.9217C91.4093 17.1139 91.6559 17.9772 92.1493 18.5117C92.6632 19.0256 93.3107 19.2825 94.0918 19.2825C94.9345 19.2825 95.6026 19.0872 96.0959 18.6967V13.0233ZM113.868 14.5033C113.868 13.8661 113.683 13.4036 113.313 13.1158C112.963 12.8075 112.48 12.6533 111.864 12.6533C111.452 12.6533 111.041 12.7047 110.63 12.8075C110.24 12.9103 109.901 13.0644 109.613 13.27V23.9692C109.407 24.0308 109.078 24.0925 108.626 24.1542C108.194 24.2158 107.742 24.2467 107.269 24.2467C106.817 24.2467 106.406 24.2158 106.036 24.1542C105.687 24.0925 105.389 23.9692 105.142 23.7842C104.895 23.5992 104.7 23.3525 104.556 23.0442C104.433 22.7153 104.371 22.2939 104.371 21.78V12.53C104.371 11.975 104.484 11.5228 104.71 11.1733C104.957 10.8239 105.286 10.5053 105.697 10.2175C106.396 9.72417 107.269 9.32333 108.318 9.015C109.387 8.70667 110.569 8.5525 111.864 8.5525C114.186 8.5525 115.975 9.06639 117.229 10.0942C118.482 11.1014 119.109 12.5094 119.109 14.3183V23.9692C118.904 24.0308 118.575 24.0925 118.123 24.1542C117.691 24.2158 117.239 24.2467 116.766 24.2467C116.314 24.2467 115.903 24.2158 115.533 24.1542C115.183 24.0925 114.885 23.9692 114.639 23.7842C114.392 23.5992 114.197 23.3525 114.053 23.0442C113.929 22.7153 113.868 22.2939 113.868 21.78V14.5033ZM128.76 20.67C129.11 20.67 129.49 20.6392 129.901 20.5775C130.333 20.4953 130.652 20.3925 130.857 20.2692V17.8025L128.637 17.9875C128.062 18.0286 127.589 18.1519 127.219 18.3575C126.849 18.5631 126.664 18.8714 126.664 19.2825C126.664 19.6936 126.818 20.0328 127.126 20.3C127.455 20.5467 128 20.67 128.76 20.67ZM128.514 8.5525C129.624 8.5525 130.631 8.66555 131.535 8.89167C132.46 9.11778 133.242 9.46722 133.879 9.94C134.537 10.3922 135.04 10.9781 135.39 11.6975C135.739 12.3964 135.914 13.2289 135.914 14.195V21.1017C135.914 21.6361 135.76 22.0781 135.451 22.4275C135.164 22.7564 134.814 23.0442 134.403 23.2908C133.067 24.0925 131.186 24.4933 128.76 24.4933C127.671 24.4933 126.684 24.3906 125.8 24.185C124.937 23.9794 124.187 23.6711 123.55 23.26C122.933 22.8489 122.45 22.3247 122.1 21.6875C121.772 21.0503 121.607 20.3103 121.607 19.4675C121.607 18.0492 122.029 16.9597 122.871 16.1992C123.714 15.4386 125.019 14.9658 126.787 14.7808L130.826 14.3492V14.1333C130.826 13.5372 130.559 13.1158 130.025 12.8692C129.511 12.6019 128.76 12.4683 127.774 12.4683C126.993 12.4683 126.232 12.5506 125.492 12.715C124.752 12.8794 124.084 13.085 123.488 13.3317C123.221 13.1467 122.995 12.8692 122.81 12.4992C122.625 12.1086 122.532 11.7078 122.532 11.2967C122.532 10.7622 122.655 10.3408 122.902 10.0325C123.169 9.70361 123.57 9.42611 124.105 9.2C124.701 8.97389 125.4 8.80944 126.201 8.70667C127.024 8.60389 127.794 8.5525 128.514 8.5525Z" fill="#9E1068"/>
</svg>
