<svg width="22" height="22" viewBox="0 0 22 22" fill="none" xmlns="http://www.w3.org/2000/svg">
<path d="M13.4807 20.4425H8.08873C6.90249 20.4425 5.91396 20.3257 5.07821 20.0741C4.77266 19.9842 4.57495 19.6876 4.59293 19.3731C4.81759 16.6861 7.54054 14.5742 10.7847 14.5742C14.0289 14.5742 16.7429 16.6771 16.9765 19.3731C17.0035 19.6966 16.8058 19.9842 16.4912 20.0741C15.6555 20.3257 14.6669 20.4425 13.4807 20.4425ZM6.03978 18.9238C6.63289 19.0406 7.30689 19.0945 8.08873 19.0945H13.4807C14.2625 19.0945 14.9365 19.0406 15.5297 18.9238C15.0534 17.1983 13.0853 15.9222 10.7847 15.9222C8.48414 15.9222 6.51607 17.1983 6.03978 18.9238Z" fill="#292D32"/>
<path d="M13.4795 1.79883H8.08752C3.5942 1.79883 1.79688 3.59616 1.79688 8.08947V13.4815C1.79688 16.8784 2.82135 18.7386 5.26572 19.4306C5.46342 17.0941 7.86285 15.2518 10.7835 15.2518C13.7042 15.2518 16.1036 17.0941 16.3013 19.4306C18.7457 18.7386 19.7701 16.8784 19.7701 13.4815V8.08947C19.7701 3.59616 17.9728 1.79883 13.4795 1.79883ZM10.7835 12.7355C9.00416 12.7355 7.56629 11.2887 7.56629 9.50938C7.56629 7.73002 9.00416 6.29215 10.7835 6.29215C12.5629 6.29215 14.0007 7.73002 14.0007 9.50938C14.0007 11.2887 12.5629 12.7355 10.7835 12.7355Z" stroke="#292D32" stroke-width="1.348" stroke-linecap="round" stroke-linejoin="round"/>
<path d="M10.7838 13.4086C8.63599 13.4086 6.89258 11.6562 6.89258 9.50842C6.89258 7.36061 8.63599 5.61719 10.7838 5.61719C12.9316 5.61719 14.675 7.36061 14.675 9.50842C14.675 11.6562 12.9316 13.4086 10.7838 13.4086ZM10.7838 6.96518C9.38188 6.96518 8.24057 8.1065 8.24057 9.50842C8.24057 10.9193 9.38188 12.0606 10.7838 12.0606C12.1857 12.0606 13.327 10.9193 13.327 9.50842C13.327 8.1065 12.1857 6.96518 10.7838 6.96518Z" fill="#292D32"/>
</svg>
